<svg width="40" height="40" viewBox="0 0 40 40" fill="none" xmlns="http://www.w3.org/2000/svg">
<path fill-rule="evenodd" clip-rule="evenodd" d="M16.625 10H16.5854C15.7413 9.99999 15.0511 9.99998 14.4953 10.0565C13.9182 10.1152 13.4035 10.241 12.9444 10.5477C12.5895 10.7848 12.2848 11.0895 12.0477 11.4444C11.741 11.9034 11.6152 12.4182 11.5565 12.9953C11.5 13.5511 11.5 14.2413 11.5 15.0854V15.125L11.5 24.8455V24.8851C11.5 25.7292 11.5 26.4194 11.5565 26.9753C11.6152 27.5523 11.741 28.0671 12.0477 28.5261C12.2848 28.881 12.5895 29.1857 12.9444 29.4228C13.4034 29.7295 13.9182 29.8553 14.4953 29.914C15.0511 29.9705 15.7413 29.9705 16.5854 29.9705H16.625H21.25C21.6642 29.9705 22 29.6347 22 29.2205C22 28.8063 21.6642 28.4705 21.25 28.4705H16.625C15.7316 28.4705 15.118 28.4696 14.6471 28.4217C14.1886 28.3751 13.9493 28.2902 13.7778 28.1756C13.5867 28.0479 13.4226 27.8838 13.2949 27.6928C13.1803 27.5212 13.0954 27.2819 13.0488 26.8235C13.0009 26.3525 13 25.7389 13 24.8455L13 15.125C13 14.2316 13.0009 13.618 13.0488 13.1471C13.0954 12.6886 13.1803 12.4493 13.2949 12.2778C13.4226 12.0867 13.5867 11.9226 13.7778 11.7949C13.9493 11.6803 14.1886 11.5954 14.6471 11.5488C15.118 11.5009 15.7316 11.5 16.625 11.5L21.25 11.5C21.6642 11.5 22 11.1642 22 10.75C22 10.3358 21.6642 10 21.25 10L16.625 10ZM24.4699 25.6323C24.1849 25.9328 23.7102 25.9455 23.4096 25.6605C23.1091 25.3755 23.0964 24.9007 23.3814 24.6002L27.0459 20.7355L17.1149 20.7355C16.7007 20.7355 16.3649 20.3997 16.3649 19.9855C16.3649 19.5713 16.7007 19.2355 17.1149 19.2355L27.0459 19.2355L23.3814 15.3709C23.0964 15.0703 23.1091 14.5956 23.4096 14.3106C23.7102 14.0256 24.1849 14.0382 24.4699 14.3388L29.3348 19.4695C29.6091 19.7588 29.6091 20.2122 29.3348 20.5016L24.4699 25.6323Z" fill="#283747"/>
</svg>
