<svg width="40" height="40" viewBox="0 0 40 40" fill="none" xmlns="http://www.w3.org/2000/svg">
<path fill-rule="evenodd" clip-rule="evenodd" d="M12.5686 21.1555C12.258 22.0718 11.6379 22.7107 11.0848 23.2806C10.4374 23.9477 9.88173 24.5202 10.0218 25.3324C10.2268 26.5206 11.7858 26.5065 12.6638 26.4986L16.258 26.4974C16.3854 28.4531 18.0121 30 20 30C21.9879 30 23.6146 28.4531 23.742 26.4974L27.3362 26.4986C28.2142 26.5065 29.7732 26.5206 29.9782 25.3324C30.1183 24.5202 29.5626 23.9477 28.9152 23.2806C28.3621 22.7107 27.742 22.0718 27.4314 21.1555C27.038 19.9951 26.844 18 26.5 15.962C26 13 24 10 20 10C16 10 14 13 13.5 15.962C13.1683 17.9268 12.962 19.995 12.5686 21.1555ZM11.6003 24.9435C11.7006 24.8094 11.877 24.6166 12.1713 24.3157C12.7094 23.7655 13.5637 22.8923 13.9892 21.6371C14.5766 19.9043 14.6761 18.0065 14.9791 16.2117C15.1915 14.9535 15.713 13.7595 16.5258 12.9025C17.3082 12.0777 18.416 11.5 20 11.5C21.584 11.5 22.6918 12.0777 23.4742 12.9025C24.287 13.7595 24.8085 14.9535 25.0209 16.2117C25.3253 18.0149 25.4214 19.8985 26.0108 21.6371C26.4363 22.8923 27.2905 23.7655 27.8287 24.3157C28.123 24.6165 28.2994 24.8094 28.3997 24.9435C27.9891 25.0229 27.564 24.9974 27.1484 24.9974H12.8516C12.436 24.9974 12.0109 25.0229 11.6003 24.9435ZM22.2366 26.4974H17.7634C17.8866 27.6236 18.841 28.5 20 28.5C21.159 28.5 22.1134 27.6236 22.2366 26.4974Z" fill="#283747"/>
</svg>
